PathFileType	4	(X/Y/Z)	C:/Users/beibeiliu/ov580/test_trc/User2\sequence.26_training_dense_left.trc
DataRate	CameraRate	NumFrames	NumMarkers	Units	OrigDataRate	OrigDataStartFrame	OrigNumFrames
120	120	14	19	mm	120	226	361
Frame#	Time	ThumbCMC			ThumbMCP			ThumbIP			ThumbTip			IndexMCP			IndexPIP			IndexTip			MiddleMCP			MiddlePIP			MiddleTip			RingMCP			RingPIP			RingTip			PinkyMCP			PinkyPIP			PinkyTip			BackHand1			BackHand2			BackHand3	
		X0	Y0	Z0	X1	Y1	Z1	X2	Y2	Z2	X3	Y3	Z3	X4	Y4	Z4	X5	Y5	Z5	X6	Y6	Z6	X7	Y7	Z7	X8	Y8	Z8	X9	Y9	Z9	X10	Y10	Z10	X11	Y11	Z11	X12	Y12	Z12	X13	Y13	Z13	X14	Y14	Z14	X15	Y15	Z15	X16	Y16	Z16	X17	Y17	Z17	X18	Y18	Z18	
225	1.875	-154.821	-40.3287	80.3201	-151.401	-64.5753	53.4465	-160.9	-80.6153	28.0096	-179.295	-90.3293	1.28641	-186.484	10.3145	20.1493	-186.222	18.2259	-9.11083	-196.293	16.9892	-34.3126	-215.115	14.5084	27.361	-234.125	23.5746	-4.91395	-243.822	15.0432	-37.2553	-239.857	-7.26673	22.0365	-239.188	-30.4139	0.711941	-227.359	-57.8399	18.4036	-249.951	-30.4014	36.9617	-244.03	-60.1064	28.3093	-223.627	-68.2426	55.0509	-222.048	-3.12818	84.182	-212.356	-8.99204	117.387	-182.941	-3.93807	87.9091	
226	1.88333	-158.157	-42.6265	77.3693	-161.832	-67.0672	52.8262	-168.488	-87.4893	21.672	-191.223	-94.0737	3.85512	-191.742	3.873	20.1311	-197.176	12.8818	-10.5905	-205.758	8.62431	-37.2601	-221.885	11.9309	24.675	-241.06	18.2687	-8.45043	-253.6	5.32773	-38.0604	-242.011	-11.3139	22.3456	-249.447	-35.7865	5.25412	-229.861	-62.3191	23.5817	-258.304	-34.125	39.9667	-250.379	-65.4614	33.941	-227.197	-67.7094	54.9266	-227.685	-4.92471	81.7904	-211.905	-6.95005	113.646	-186.497	-5.0285	88.2187	
227	1.89167	-163.678	-43.1977	78.9665	-165.276	-67.704	52.6006	-176.123	-87.7605	25.4513	-197.256	-96.3759	7.58818	-197.042	1.16237	20.0281	-202.556	9.8799	-9.6045	-214.851	0.890313	-40.102	-225.747	9.76718	23.2575	-245.778	15.3393	-9.4969	-261.197	0.523871	-37.2856	-251.149	-13.2927	23.4194	-252.966	-39.3867	5.0572	-234.802	-64.7265	26.4991	-259.04	-34.8834	44.4148	-255.814	-65.5695	34.6766	-232.245	-72.4874	58.4015	-225.942	-3.64594	79.5078	-215.787	-8.20023	113.678	-186.093	-3.40785	82.8616	
228	1.9	-164.111	-42.2388	77.9661	-165.707	-68.2331	54.4291	-177.067	-88.7664	26.9913	-195.015	-101.04	4.87936	-203.124	1.87297	17.1437	-209.155	8.16832	-10.204	-218.917	-0.819192	-41.6669	-230.863	9.02337	23.407	-251.159	12.4204	-7.093	-266.466	-2.94703	-32.813	-253.201	-15.3594	28.8393	-254.847	-39.9316	5.6939	-237.849	-63.4708	22.8026	-263.995	-37.0789	45.9921	-254.578	-70.1019	35.9351	-230.549	-67.2811	57.4516	-230.823	-6.03753	82.1333	-216.538	-6.87674	113.3	-188.517	-4.83255	85.0028	
229	1.90833	-166.469	-41.6938	77.5191	-165.187	-68.7406	54.3519	-176.339	-88.7753	26.8856	-196.162	-100.233	4.06403	-199.039	1.91686	18.346	-208.068	8.88441	-10.7487	-219.234	2.05922	-37.4786	-229.12	7.57785	25.4617	-250.766	13.686	-9.03745	-267.876	-1.42027	-31.9404	-253.468	-14.2218	25.1083	-257.868	-40.3582	7.00174	-237.621	-64.5602	28.2291	-264.842	-38.1801	41.4133	-258.093	-66.0846	33.0034	-232.581	-71.6012	57.9396	-229.427	-7.94246	82.1701	-220.162	-8.04415	115.135	-194.553	-4.25831	83.0754	
230	1.91667	-163.535	-42.6102	77.4623	-166.468	-68.3442	50.1346	-174.636	-89.1765	24.6058	-193.101	-100.035	4.44127	-197.597	2.14602	19.927	-206.012	10.7498	-11.3058	-216.955	8.09563	-39.1107	-231.587	9.16515	27.5356	-246.932	16.6944	-6.46091	-263.668	3.47836	-37.5456	-247.351	-13.1238	23.6565	-258.067	-36.0086	5.48363	-235.739	-61.8828	20.6476	-263.836	-34.9253	43.5187	-253.926	-65.9568	31.2661	-231.845	-69.4358	56.1485	-229.638	-5.54879	80.1465	-215.192	-8.70655	110.208	-191.633	-4.0649	84.4791	
231	1.925	-163.634	-42.8509	75.0974	-160.51	-70.4185	48.1478	-171.857	-89.224	22.4748	-186.878	-102.151	3.4868	-192.404	3.81741	16.9813	-198.158	12.5023	-9.72592	-212.369	14.583	-40.5728	-223.5	12.3514	22.2682	-242.01	19.4698	-9.13397	-259.182	12.6981	-38.4082	-246.378	-10.7251	22.722	-255.651	-34.0073	4.91634	-235.453	-60.6508	20.2024	-257.871	-31.5363	43.0929	-254.248	-60.9645	28.8057	-233.128	-70.643	49.3069	-225.392	-4.58126	80.3949	-214.531	-7.66416	111.646	-188.351	-4.83352	84.1047	
232	1.93333	-161.182	-43.8693	75.1309	-163.842	-69.0457	50.134	-169.734	-89.8764	23.0808	-184.177	-102.261	5.7618	-191.765	4.43234	16.6587	-193.947	12.8164	-9.91049	-203.024	15.6376	-36.7518	-224.961	12.7571	23.173	-238.422	21.1118	-8.07234	-254.777	17.783	-33.6957	-248.573	-10.4476	22.8955	-250.765	-32.389	2.98302	-234.141	-61.3727	19.8506	-257.939	-31.6321	38.9818	-254.164	-62.7326	29.6281	-229.051	-68.8544	52.0739	-222.074	-6.54786	82.9128	-213.649	-9.2378	112.69	-185.091	-5.71147	87.2028	
233	1.94167	-161.634	-44.3685	78.7729	-163.069	-69.6412	52.1851	-168	-91.8637	24.7358	-186.985	-102.718	0.826314	-193.544	0.575753	17.711	-198.954	11.659	-10.846	-209.709	14.9656	-37.2457	-225.174	7.32211	23.8748	-241.981	16.2964	-4.05209	-261.752	13.6353	-36.495	-244.858	-13.404	26.3959	-256.256	-36.7611	5.1967	-233.021	-65.8344	20.8468	-259.229	-34.4331	42.1711	-251.905	-65.5985	30.7776	-232.638	-71.2787	52.7498	-228.479	-6.72042	82.9039	-214.745	-9.24822	113.24	-188.873	-5.24314	82.1215	
234	1.95	-166.235	-45.6987	72.7499	-167.372	-73.1247	51.919	-174.786	-94.0747	22.5115	-191.942	-106.387	6.67638	-202.747	-2.4349	13.5169	-210.826	5.0943	-14.2005	-219.221	8.49186	-39.1121	-235.433	3.40584	19.7497	-254.139	7.41653	-9.28386	-272.064	3.46931	-34.0538	-256.332	-20.7135	22.2978	-260.529	-44.6595	6.7961	-240.635	-72.1775	24.8951	-263.604	-40.7697	44.1946	-259.04	-72.3014	35.0328	-232.828	-75.8482	55.9713	-230.688	-9.30915	79.8611	-215.779	-9.4128	110.299	-192.271	-6.90212	81.7118	
235	1.95833	-169.936	-46.6044	74.9416	-172.311	-74.6532	48.3932	-179.313	-98.0519	23.4859	-199.893	-109.174	5.59673	-213.792	-5.08552	13.7922	-219.69	1.02964	-11.2732	-231.871	4.09724	-41.6674	-246.799	-0.478606	19.8938	-263.067	2.09368	-10.1621	-283.872	-3.99809	-32.5946	-264.881	-25.5691	24.9703	-267.283	-52.0816	9.22441	-248.05	-75.7033	25.7377	-273.739	-45.4077	46.6344	-262.493	-76.0065	38.4173	-238.993	-77.5045	56.1244	-236.715	-12.4746	81.3222	-223.034	-11.8501	113.05	-195.14	-6.97017	76.7377	
236	1.96667	-172.191	-48.6031	70.8036	-175.465	-77.1459	46.9196	-185.938	-99.5893	20.5513	-204.901	-112.163	4.07937	-218.091	-6.02198	9.47405	-230.181	-0.820532	-13.1162	-246.005	1.36027	-40.9765	-248.578	-4.05167	22.1253	-274.142	-1.62437	-7.85183	-291.754	-8.80656	-30.3937	-267.373	-25.9303	27.5943	-275.097	-56.6288	12.2909	-252.116	-77.2866	29.5016	-279.149	-45.8665	49.6322	-266.732	-77.8673	39.0872	-240.286	-75.8356	57.2478	-237.165	-11.7174	80.4651	-226.452	-9.98413	110.16	-201.239	-9.10468	77.1835	
237	1.975	-182.54	-46.3691	68.135	-182.787	-75.5261	42.8615	-194.518	-96.5459	22.2067	-211.692	-111.638	4.0274	-225.163	-5.99788	9.48695	-234.773	-1.91497	-13.0167	-253.723	-2.72671	-36.463	-254.553	-2.89174	18.9487	-277.012	-2.6574	-7.64609	-301.299	-13.7701	-29.6466	-273.505	-26.193	27.9388	-280.011	-52.6506	10.9385	-255.572	-75.735	25.9132	-279.651	-46.6842	45.7099	-274.75	-76.2869	39.7331	-244.78	-75.9338	60.2016	-244.71	-12.9178	80.6071	-228.346	-9.29799	107.046	-206.552	-7.98938	78.2846	
238	1.98333	-180.785	-46.0288	66.8458	-183.564	-74.4394	44.8668	-195.986	-97.898	17.6475	-217.379	-108.504	4.1315	-227.794	-7.36412	10.6329	-244.544	-2.66617	-17.2672	-259.342	-6.4142	-40.3041	-260.956	-4.20266	19.178	-287.17	-6.93106	-4.84507	-306.043	-20.359	-30.2706	-277.194	-27.7852	24.7588	-283.496	-52.9654	10.9196	-259.659	-76.6716	27.0087	-286.471	-47.6273	47.266	-274.939	-77.1433	39.6582	-250.061	-77.4099	59.1695	-244.398	-12.3539	79.4809	-233.928	-8.32379	106.67	-206.064	-9.97692	77.9653	
